<?xml version="1.0" ?><!DOCTYPE svg  PUBLIC '-//W3C//DTD SVG 1.1//EN'  'http://www.w3.org/Graphics/SVG/1.1/DTD/svg11.dtd'><svg enable-background="new 0 0 512 512" id="Layer_1" version="1.1" viewBox="0 0 512 512" xml:space="preserve" xmlns="http://www.w3.org/2000/svg" xmlns:xlink="http://www.w3.org/1999/xlink"><path d="M369.4,206.1c-74.8-8.3-118.7-87.8-179.6-122.3c-0.5,0-1-0.1-1.5-0.1l0,0.1c-3-8.5-11-14.7-20.6-14.7h-13  c-12.1,0-21.9,9.8-21.9,21.9V421c0,12.1,9.8,21.9,21.9,21.9h13c12.1,0,21.9-9.8,21.9-21.9v-155c0.1-0.1,0.1-0.1,0.2-0.2  c63.2-35,124.9,24.6,179.6-32.5C382.3,219.3,382.3,203,369.4,206.1z"/></svg>